<?xml version="1.0" encoding="UTF-8" standalone="no"?>
<!-- Generated by IcoMoon.io -->

<svg
   xmlns:dc="http://purl.org/dc/elements/1.1/"
   xmlns:cc="http://creativecommons.org/ns#"
   xmlns:rdf="http://www.w3.org/1999/02/22-rdf-syntax-ns#"
   xmlns:svg="http://www.w3.org/2000/svg"
   xmlns="http://www.w3.org/2000/svg"
   xmlns:sodipodi="http://sodipodi.sourceforge.net/DTD/sodipodi-0.dtd"
   xmlns:inkscape="http://www.inkscape.org/namespaces/inkscape"
   version="1.1"
   width="32"
   height="32"
   viewBox="0 0 32 32"
   id="svg4545"
   sodipodi:docname="icon.svg"
   inkscape:version="0.92.3 (2405546, 2018-03-11)">
  <metadata
     id="metadata4551">
    <rdf:RDF>
      <cc:Work
         rdf:about="">
        <dc:format>image/svg+xml</dc:format>
        <dc:type
           rdf:resource="http://purl.org/dc/dcmitype/StillImage" />
        <dc:title>icon</dc:title>
      </cc:Work>
    </rdf:RDF>
  </metadata>
  <defs
     id="defs4549" />
  <sodipodi:namedview
     pagecolor="#ffffff"
     bordercolor="#666666"
     borderopacity="1"
     objecttolerance="10"
     gridtolerance="10"
     guidetolerance="10"
     inkscape:pageopacity="0"
     inkscape:pageshadow="2"
     inkscape:window-width="1250"
     inkscape:window-height="1028"
     id="namedview4547"
     showgrid="false"
     inkscape:zoom="20.85965"
     inkscape:cx="16.423189"
     inkscape:cy="21.587292"
     inkscape:window-x="1308"
     inkscape:window-y="120"
     inkscape:window-maximized="0"
     inkscape:current-layer="layer1" />
  <title
     id="title4539">icon</title>
  <g
     inkscape:groupmode="layer"
     id="layer1"
     inkscape:label="Layer 1">
    <ellipse
       style="opacity:0.84299999;fill:#e6e6e6;fill-opacity:0.66315788;stroke:#000000;stroke-width:0.048;stroke-linejoin:round;stroke-miterlimit:4;stroke-dasharray:none;stroke-opacity:0;paint-order:normal"
       id="path5176"
       cx="16.011774"
       cy="15.436922"
       rx="15.292683"
       ry="14.789318" />
  </g>
  <g
     inkscape:groupmode="layer"
     id="layer2"
     inkscape:label="Layer 2">
    <path
       d="M 29,8 H 19 C 18.448,8 18,7.552 18,7 18,6.448 18.448,6 19,6 h 10 c 0.552,0 1,0.448 1,1 0,0.552 -0.448,1 -1,1 z"
       id="path4543"
       style="fill:#ff0000;fill-opacity:0.7;stroke:#e30000;stroke-opacity:0.74736837"
       inkscape:connector-curvature="0" />
    <path
       d="m 29,26 h -8 c -0.395,0 -0.753,-0.233 -0.914,-0.594 L 12.35,8 H 3 C 2.448,8 2,7.552 2,7 2,6.448 2.448,6 3,6 h 10 c 0.395,0 0.753,0.233 0.914,0.594 L 21.65,24 H 29 c 0.552,0 1,0.448 1,1 0,0.552 -0.448,1 -1,1 z"
       id="path4541"
       style="fill:#333333;fill-opacity:1;stroke:#333333;stroke-linejoin:round;stroke-opacity:0.7842105;paint-order:normal"
       inkscape:connector-curvature="0" />
  </g>
</svg>
